<svg width="85" height="10" viewBox="0 0 85 10" fill="none" xmlns="http://www.w3.org/2000/svg">
<path d="M5.33203 7.16895H2.10449L1.26465 9H0.0390625L3.76953 0.987305L7.36816 9H6.12305L5.33203 7.16895ZM4.86816 6.09961L3.75 3.53613L2.57812 6.09961H4.86816ZM8.46191 4.24414L9.69238 6.91504L10.918 4.24414H12.1533L9.68262 9.32715L7.23145 4.24414H8.46191ZM16.2305 4.24414H17.334V9H16.2305V8.50195C15.778 8.92513 15.2913 9.13672 14.7705 9.13672C14.113 9.13672 13.5693 8.89909 13.1396 8.42383C12.7132 7.9388 12.5 7.33333 12.5 6.60742C12.5 5.89453 12.7132 5.30046 13.1396 4.8252C13.5661 4.34993 14.0999 4.1123 14.7412 4.1123C15.2946 4.1123 15.791 4.34017 16.2305 4.7959V4.24414ZM13.623 6.60742C13.623 7.06315 13.7451 7.43424 13.9893 7.7207C14.2399 8.01042 14.5557 8.15527 14.9365 8.15527C15.3434 8.15527 15.6722 8.0153 15.9229 7.73535C16.1735 7.44564 16.2988 7.0778 16.2988 6.63184C16.2988 6.18587 16.1735 5.81803 15.9229 5.52832C15.6722 5.24512 15.3467 5.10352 14.9463 5.10352C14.5687 5.10352 14.2529 5.24674 13.999 5.5332C13.7484 5.82292 13.623 6.18099 13.623 6.60742ZM19.8193 4.24414V9H18.7207V4.24414H19.8193ZM18.5547 2.2666C18.5547 2.07454 18.6247 1.90853 18.7646 1.76855C18.9046 1.62858 19.0723 1.55859 19.2676 1.55859C19.4661 1.55859 19.6354 1.62858 19.7754 1.76855C19.9154 1.90527 19.9854 2.07292 19.9854 2.27148C19.9854 2.47005 19.9154 2.63932 19.7754 2.7793C19.6387 2.91927 19.471 2.98926 19.2725 2.98926C19.0739 2.98926 18.9046 2.91927 18.7646 2.7793C18.6247 2.63932 18.5547 2.46842 18.5547 2.2666ZM22.3096 0.75293V9H21.2109V0.75293H22.3096ZM27.207 4.24414H28.3105V9H27.207V8.50195C26.7546 8.92513 26.2679 9.13672 25.7471 9.13672C25.0895 9.13672 24.5459 8.89909 24.1162 8.42383C23.6898 7.9388 23.4766 7.33333 23.4766 6.60742C23.4766 5.89453 23.6898 5.30046 24.1162 4.8252C24.5426 4.34993 25.0765 4.1123 25.7178 4.1123C26.2712 4.1123 26.7676 4.34017 27.207 4.7959V4.24414ZM24.5996 6.60742C24.5996 7.06315 24.7217 7.43424 24.9658 7.7207C25.2165 8.01042 25.5322 8.15527 25.9131 8.15527C26.32 8.15527 26.6488 8.0153 26.8994 7.73535C27.1501 7.44564 27.2754 7.0778 27.2754 6.63184C27.2754 6.18587 27.1501 5.81803 26.8994 5.52832C26.6488 5.24512 26.3232 5.10352 25.9229 5.10352C25.5452 5.10352 25.2295 5.24674 24.9756 5.5332C24.7249 5.82292 24.5996 6.18099 24.5996 6.60742ZM30.7959 0.75293V4.7959C31.2354 4.34017 31.7334 4.1123 32.29 4.1123C32.9313 4.1123 33.4652 4.35156 33.8916 4.83008C34.318 5.30534 34.5312 5.89779 34.5312 6.60742C34.5312 7.33984 34.3164 7.94531 33.8867 8.42383C33.4603 8.89909 32.9215 9.13672 32.2705 9.13672C31.7204 9.13672 31.2288 8.92513 30.7959 8.50195V9H29.6973V0.75293H30.7959ZM33.4082 6.65625C33.4082 6.20052 33.2845 5.82943 33.0371 5.54297C32.7865 5.25 32.4723 5.10352 32.0947 5.10352C31.6911 5.10352 31.3623 5.24512 31.1084 5.52832C30.8577 5.80827 30.7324 6.17285 30.7324 6.62207C30.7324 7.08431 30.8561 7.45378 31.1035 7.73047C31.3509 8.01367 31.6764 8.15527 32.0801 8.15527C32.4609 8.15527 32.7767 8.01367 33.0273 7.73047C33.2812 7.44401 33.4082 7.08594 33.4082 6.65625ZM36.792 0.75293V9H35.6934V0.75293H36.792ZM42.5146 6.88086H39.1064C39.1357 7.27148 39.2627 7.58236 39.4873 7.81348C39.7119 8.04134 40 8.15527 40.3516 8.15527C40.625 8.15527 40.8512 8.09017 41.0303 7.95996C41.2061 7.82975 41.4062 7.58887 41.6309 7.2373L42.5586 7.75488C42.4154 7.99902 42.264 8.20898 42.1045 8.38477C41.945 8.55729 41.7741 8.70052 41.5918 8.81445C41.4095 8.92513 41.2126 9.00651 41.001 9.05859C40.7894 9.11068 40.5599 9.13672 40.3125 9.13672C39.6029 9.13672 39.0332 8.90885 38.6035 8.45312C38.1738 7.99414 37.959 7.38542 37.959 6.62695C37.959 5.875 38.1673 5.26628 38.584 4.80078C39.0039 4.3418 39.5605 4.1123 40.2539 4.1123C40.9538 4.1123 41.5072 4.33529 41.9141 4.78125C42.3177 5.22396 42.5195 5.83757 42.5195 6.62207L42.5146 6.88086ZM41.3867 5.98242C41.2337 5.39648 40.8643 5.10352 40.2783 5.10352C40.1449 5.10352 40.0195 5.12467 39.9023 5.16699C39.7852 5.20605 39.6777 5.26465 39.5801 5.34277C39.4857 5.41764 39.4043 5.50879 39.3359 5.61621C39.2676 5.72363 39.2155 5.8457 39.1797 5.98242H41.3867ZM47.9443 5.26953V9H46.8408V5.26953H46.4502V4.24414H46.8408V2.4082C46.8408 1.80924 46.945 1.38607 47.1533 1.13867C47.4398 0.79362 47.8564 0.621094 48.4033 0.621094C48.5986 0.621094 48.8444 0.67806 49.1406 0.791992V1.91504L49.0283 1.85645C48.7907 1.736 48.5954 1.67578 48.4424 1.67578C48.2471 1.67578 48.1152 1.74577 48.0469 1.88574C47.9785 2.02246 47.9443 2.28613 47.9443 2.67676V4.24414H49.1406V5.26953H47.9443ZM49.6777 6.58789C49.6777 5.90104 49.9235 5.31673 50.415 4.83496C50.9066 4.35319 51.5055 4.1123 52.2119 4.1123C52.9215 4.1123 53.5238 4.35482 54.0186 4.83984C54.5068 5.32487 54.751 5.92057 54.751 6.62695C54.751 7.33984 54.5052 7.93717 54.0137 8.41895C53.5189 8.89746 52.9118 9.13672 52.1924 9.13672C51.4795 9.13672 50.8822 8.89258 50.4004 8.4043C49.9186 7.92253 49.6777 7.31706 49.6777 6.58789ZM50.8008 6.60742C50.8008 7.08268 50.9277 7.45866 51.1816 7.73535C51.4421 8.0153 51.7855 8.15527 52.2119 8.15527C52.6416 8.15527 52.985 8.01693 53.2422 7.74023C53.4993 7.46354 53.6279 7.09408 53.6279 6.63184C53.6279 6.1696 53.4993 5.80013 53.2422 5.52344C52.9818 5.24349 52.6383 5.10352 52.2119 5.10352C51.792 5.10352 51.4518 5.24349 51.1914 5.52344C50.931 5.80339 50.8008 6.16471 50.8008 6.60742ZM55.918 4.24414H57.0166V4.66895C57.2184 4.45736 57.3975 4.3125 57.5537 4.23438C57.7132 4.15299 57.902 4.1123 58.1201 4.1123C58.4098 4.1123 58.7126 4.20671 59.0283 4.39551L58.5254 5.40137C58.3171 5.25163 58.1136 5.17676 57.915 5.17676C57.3161 5.17676 57.0166 5.62923 57.0166 6.53418V9H55.918V4.24414ZM63.3398 4.24414L64.585 6.95898L65.9277 3.80957L67.2803 6.95898L68.5107 4.24414H69.7412L67.251 9.35645L65.9277 6.29492L64.5898 9.35645L62.1045 4.24414H63.3398ZM70.0781 6.58789C70.0781 5.90104 70.3239 5.31673 70.8154 4.83496C71.307 4.35319 71.9059 4.1123 72.6123 4.1123C73.3219 4.1123 73.9242 4.35482 74.4189 4.83984C74.9072 5.32487 75.1514 5.92057 75.1514 6.62695C75.1514 7.33984 74.9056 7.93717 74.4141 8.41895C73.9193 8.89746 73.3122 9.13672 72.5928 9.13672C71.8799 9.13672 71.2826 8.89258 70.8008 8.4043C70.319 7.92253 70.0781 7.31706 70.0781 6.58789ZM71.2012 6.60742C71.2012 7.08268 71.3281 7.45866 71.582 7.73535C71.8424 8.0153 72.1859 8.15527 72.6123 8.15527C73.042 8.15527 73.3854 8.01693 73.6426 7.74023C73.8997 7.46354 74.0283 7.09408 74.0283 6.63184C74.0283 6.1696 73.8997 5.80013 73.6426 5.52344C73.3822 5.24349 73.0387 5.10352 72.6123 5.10352C72.1924 5.10352 71.8522 5.24349 71.5918 5.52344C71.3314 5.80339 71.2012 6.16471 71.2012 6.60742ZM76.3184 4.24414H77.417V4.66895C77.6188 4.45736 77.7979 4.3125 77.9541 4.23438C78.1136 4.15299 78.3024 4.1123 78.5205 4.1123C78.8102 4.1123 79.113 4.20671 79.4287 4.39551L78.9258 5.40137C78.7174 5.25163 78.514 5.17676 78.3154 5.17676C77.7165 5.17676 77.417 5.62923 77.417 6.53418V9H76.3184V4.24414ZM81.3135 0.75293V5.78223L82.8613 4.24414H84.3359L82.2705 6.24121L84.4873 9H83.0615L81.4893 6.99316L81.3135 7.16895V9H80.2148V0.75293H81.3135Z" fill="black"/>
</svg>
