<svg width="97" height="15" viewBox="0 0 97 15" fill="none" xmlns="http://www.w3.org/2000/svg">
<g filter="url(#filter0_d_222_41)">
<circle cx="5.5" cy="5.5" r="1.5" fill="#00FF0A"/>
</g>
<path d="M17.332 10.1689H14.1045L13.2646 12H12.0391L15.7695 3.9873L19.3682 12H18.123L17.332 10.1689ZM16.8682 9.09961L15.75 6.53613L14.5781 9.09961H16.8682ZM20.4619 7.24414L21.6924 9.91504L22.918 7.24414H24.1533L21.6826 12.3271L19.2314 7.24414H20.4619ZM28.2305 7.24414H29.334V12H28.2305V11.502C27.778 11.9251 27.2913 12.1367 26.7705 12.1367C26.113 12.1367 25.5693 11.8991 25.1396 11.4238C24.7132 10.9388 24.5 10.3333 24.5 9.60742C24.5 8.89453 24.7132 8.30046 25.1396 7.8252C25.5661 7.34993 26.0999 7.1123 26.7412 7.1123C27.2946 7.1123 27.791 7.34017 28.2305 7.7959V7.24414ZM25.623 9.60742C25.623 10.0632 25.7451 10.4342 25.9893 10.7207C26.2399 11.0104 26.5557 11.1553 26.9365 11.1553C27.3434 11.1553 27.6722 11.0153 27.9229 10.7354C28.1735 10.4456 28.2988 10.0778 28.2988 9.63184C28.2988 9.18587 28.1735 8.81803 27.9229 8.52832C27.6722 8.24512 27.3467 8.10352 26.9463 8.10352C26.5687 8.10352 26.2529 8.24674 25.999 8.5332C25.7484 8.82292 25.623 9.18099 25.623 9.60742ZM31.8193 7.24414V12H30.7207V7.24414H31.8193ZM30.5547 5.2666C30.5547 5.07454 30.6247 4.90853 30.7646 4.76855C30.9046 4.62858 31.0723 4.55859 31.2676 4.55859C31.4661 4.55859 31.6354 4.62858 31.7754 4.76855C31.9154 4.90527 31.9854 5.07292 31.9854 5.27148C31.9854 5.47005 31.9154 5.63932 31.7754 5.7793C31.6387 5.91927 31.471 5.98926 31.2725 5.98926C31.0739 5.98926 30.9046 5.91927 30.7646 5.7793C30.6247 5.63932 30.5547 5.46842 30.5547 5.2666ZM34.3096 3.75293V12H33.2109V3.75293H34.3096ZM39.207 7.24414H40.3105V12H39.207V11.502C38.7546 11.9251 38.2679 12.1367 37.7471 12.1367C37.0895 12.1367 36.5459 11.8991 36.1162 11.4238C35.6898 10.9388 35.4766 10.3333 35.4766 9.60742C35.4766 8.89453 35.6898 8.30046 36.1162 7.8252C36.5426 7.34993 37.0765 7.1123 37.7178 7.1123C38.2712 7.1123 38.7676 7.34017 39.207 7.7959V7.24414ZM36.5996 9.60742C36.5996 10.0632 36.7217 10.4342 36.9658 10.7207C37.2165 11.0104 37.5322 11.1553 37.9131 11.1553C38.32 11.1553 38.6488 11.0153 38.8994 10.7354C39.1501 10.4456 39.2754 10.0778 39.2754 9.63184C39.2754 9.18587 39.1501 8.81803 38.8994 8.52832C38.6488 8.24512 38.3232 8.10352 37.9229 8.10352C37.5452 8.10352 37.2295 8.24674 36.9756 8.5332C36.7249 8.82292 36.5996 9.18099 36.5996 9.60742ZM42.7959 3.75293V7.7959C43.2354 7.34017 43.7334 7.1123 44.29 7.1123C44.9313 7.1123 45.4652 7.35156 45.8916 7.83008C46.318 8.30534 46.5312 8.89779 46.5312 9.60742C46.5312 10.3398 46.3164 10.9453 45.8867 11.4238C45.4603 11.8991 44.9215 12.1367 44.2705 12.1367C43.7204 12.1367 43.2288 11.9251 42.7959 11.502V12H41.6973V3.75293H42.7959ZM45.4082 9.65625C45.4082 9.20052 45.2845 8.82943 45.0371 8.54297C44.7865 8.25 44.4723 8.10352 44.0947 8.10352C43.6911 8.10352 43.3623 8.24512 43.1084 8.52832C42.8577 8.80827 42.7324 9.17285 42.7324 9.62207C42.7324 10.0843 42.8561 10.4538 43.1035 10.7305C43.3509 11.0137 43.6764 11.1553 44.0801 11.1553C44.4609 11.1553 44.7767 11.0137 45.0273 10.7305C45.2812 10.444 45.4082 10.0859 45.4082 9.65625ZM48.792 3.75293V12H47.6934V3.75293H48.792ZM54.5146 9.88086H51.1064C51.1357 10.2715 51.2627 10.5824 51.4873 10.8135C51.7119 11.0413 52 11.1553 52.3516 11.1553C52.625 11.1553 52.8512 11.0902 53.0303 10.96C53.2061 10.8298 53.4062 10.5889 53.6309 10.2373L54.5586 10.7549C54.4154 10.999 54.264 11.209 54.1045 11.3848C53.945 11.5573 53.7741 11.7005 53.5918 11.8145C53.4095 11.9251 53.2126 12.0065 53.001 12.0586C52.7894 12.1107 52.5599 12.1367 52.3125 12.1367C51.6029 12.1367 51.0332 11.9089 50.6035 11.4531C50.1738 10.9941 49.959 10.3854 49.959 9.62695C49.959 8.875 50.1673 8.26628 50.584 7.80078C51.0039 7.3418 51.5605 7.1123 52.2539 7.1123C52.9538 7.1123 53.5072 7.33529 53.9141 7.78125C54.3177 8.22396 54.5195 8.83757 54.5195 9.62207L54.5146 9.88086ZM53.3867 8.98242C53.2337 8.39648 52.8643 8.10352 52.2783 8.10352C52.1449 8.10352 52.0195 8.12467 51.9023 8.16699C51.7852 8.20605 51.6777 8.26465 51.5801 8.34277C51.4857 8.41764 51.4043 8.50879 51.3359 8.61621C51.2676 8.72363 51.2155 8.8457 51.1797 8.98242H53.3867ZM59.9443 8.26953V12H58.8408V8.26953H58.4502V7.24414H58.8408V5.4082C58.8408 4.80924 58.945 4.38607 59.1533 4.13867C59.4398 3.79362 59.8564 3.62109 60.4033 3.62109C60.5986 3.62109 60.8444 3.67806 61.1406 3.79199V4.91504L61.0283 4.85645C60.7907 4.736 60.5954 4.67578 60.4424 4.67578C60.2471 4.67578 60.1152 4.74577 60.0469 4.88574C59.9785 5.02246 59.9443 5.28613 59.9443 5.67676V7.24414H61.1406V8.26953H59.9443ZM61.6777 9.58789C61.6777 8.90104 61.9235 8.31673 62.415 7.83496C62.9066 7.35319 63.5055 7.1123 64.2119 7.1123C64.9215 7.1123 65.5238 7.35482 66.0186 7.83984C66.5068 8.32487 66.751 8.92057 66.751 9.62695C66.751 10.3398 66.5052 10.9372 66.0137 11.4189C65.5189 11.8975 64.9118 12.1367 64.1924 12.1367C63.4795 12.1367 62.8822 11.8926 62.4004 11.4043C61.9186 10.9225 61.6777 10.3171 61.6777 9.58789ZM62.8008 9.60742C62.8008 10.0827 62.9277 10.4587 63.1816 10.7354C63.4421 11.0153 63.7855 11.1553 64.2119 11.1553C64.6416 11.1553 64.985 11.0169 65.2422 10.7402C65.4993 10.4635 65.6279 10.0941 65.6279 9.63184C65.6279 9.1696 65.4993 8.80013 65.2422 8.52344C64.9818 8.24349 64.6383 8.10352 64.2119 8.10352C63.792 8.10352 63.4518 8.24349 63.1914 8.52344C62.931 8.80339 62.8008 9.16471 62.8008 9.60742ZM67.918 7.24414H69.0166V7.66895C69.2184 7.45736 69.3975 7.3125 69.5537 7.23438C69.7132 7.15299 69.902 7.1123 70.1201 7.1123C70.4098 7.1123 70.7126 7.20671 71.0283 7.39551L70.5254 8.40137C70.3171 8.25163 70.1136 8.17676 69.915 8.17676C69.3161 8.17676 69.0166 8.62923 69.0166 9.53418V12H67.918V7.24414ZM75.3398 7.24414L76.585 9.95898L77.9277 6.80957L79.2803 9.95898L80.5107 7.24414H81.7412L79.251 12.3564L77.9277 9.29492L76.5898 12.3564L74.1045 7.24414H75.3398ZM82.0781 9.58789C82.0781 8.90104 82.3239 8.31673 82.8154 7.83496C83.307 7.35319 83.9059 7.1123 84.6123 7.1123C85.3219 7.1123 85.9242 7.35482 86.4189 7.83984C86.9072 8.32487 87.1514 8.92057 87.1514 9.62695C87.1514 10.3398 86.9056 10.9372 86.4141 11.4189C85.9193 11.8975 85.3122 12.1367 84.5928 12.1367C83.8799 12.1367 83.2826 11.8926 82.8008 11.4043C82.319 10.9225 82.0781 10.3171 82.0781 9.58789ZM83.2012 9.60742C83.2012 10.0827 83.3281 10.4587 83.582 10.7354C83.8424 11.0153 84.1859 11.1553 84.6123 11.1553C85.042 11.1553 85.3854 11.0169 85.6426 10.7402C85.8997 10.4635 86.0283 10.0941 86.0283 9.63184C86.0283 9.1696 85.8997 8.80013 85.6426 8.52344C85.3822 8.24349 85.0387 8.10352 84.6123 8.10352C84.1924 8.10352 83.8522 8.24349 83.5918 8.52344C83.3314 8.80339 83.2012 9.16471 83.2012 9.60742ZM88.3184 7.24414H89.417V7.66895C89.6188 7.45736 89.7979 7.3125 89.9541 7.23438C90.1136 7.15299 90.3024 7.1123 90.5205 7.1123C90.8102 7.1123 91.113 7.20671 91.4287 7.39551L90.9258 8.40137C90.7174 8.25163 90.514 8.17676 90.3154 8.17676C89.7165 8.17676 89.417 8.62923 89.417 9.53418V12H88.3184V7.24414ZM93.3135 3.75293V8.78223L94.8613 7.24414H96.3359L94.2705 9.24121L96.4873 12H95.0615L93.4893 9.99316L93.3135 10.1689V12H92.2148V3.75293H93.3135Z" fill="black"/>
<defs>
<filter id="filter0_d_222_41" x="0" y="0" width="11" height="11" filterUnits="userSpaceOnUse" color-interpolation-filters="sRGB">
<feFlood flood-opacity="0" result="BackgroundImageFix"/>
<feColorMatrix in="SourceAlpha" type="matrix" values="0 0 0 0 0 0 0 0 0 0 0 0 0 0 0 0 0 0 127 0" result="hardAlpha"/>
<feOffset/>
<feGaussianBlur stdDeviation="2"/>
<feComposite in2="hardAlpha" operator="out"/>
<feColorMatrix type="matrix" values="0 0 0 0 0 0 0 0 0 1 0 0 0 0 0.04 0 0 0 1 0"/>
<feBlend mode="normal" in2="BackgroundImageFix" result="effect1_dropShadow_222_41"/>
<feBlend mode="normal" in="SourceGraphic" in2="effect1_dropShadow_222_41" result="shape"/>
</filter>
</defs>
</svg>
