<svg width="180" height="176" viewBox="0 0 180 176" fill="none" xmlns="http://www.w3.org/2000/svg">
<path d="M57.8636 162.854C58.1365 163.331 58.4431 163.722 58.7833 164.025C59.1188 164.34 59.473 164.57 59.8461 164.714C60.3186 164.897 60.7474 164.934 61.1324 164.826C61.5175 164.718 61.7797 164.483 61.9192 164.122C62.0154 163.874 62.0201 163.64 61.9334 163.42C61.8467 163.201 61.7093 162.983 61.5211 162.768C61.3157 162.559 61.0806 162.354 60.8158 162.152C60.5385 161.944 60.2699 161.733 60.01 161.518C58.97 160.659 58.3063 159.787 58.0189 158.904C57.7142 158.029 57.7686 157.056 58.1822 155.987C58.4612 155.265 58.838 154.661 59.3128 154.172C59.7751 153.679 60.3243 153.313 60.9604 153.073C61.5792 152.84 62.2739 152.744 63.0445 152.785C63.8074 152.808 64.6179 152.986 65.4759 153.318C67.2542 154.006 68.6976 155.171 69.8059 156.815L67.0992 159.157C66.7396 158.46 66.3381 157.89 65.8947 157.447C65.4514 157.004 64.9685 156.681 64.4462 156.479C63.8493 156.249 63.355 156.215 62.9631 156.378C62.5589 156.536 62.2894 156.789 62.1547 157.137C62.073 157.348 62.0405 157.543 62.0574 157.721C62.0695 157.912 62.1386 158.103 62.2646 158.295C62.3858 158.499 62.5677 158.712 62.8105 158.935C63.0408 159.152 63.3285 159.407 63.6735 159.697C64.0883 160.029 64.4921 160.371 64.8849 160.723C65.2605 161.083 65.5709 161.482 65.8161 161.92C66.0488 162.353 66.1906 162.837 66.2413 163.371C66.2747 163.913 66.1568 164.532 65.8875 165.228C65.6181 165.925 65.2633 166.509 64.8231 166.982C64.3656 167.463 63.8547 167.823 63.2904 168.062C62.7088 168.309 62.0763 168.429 61.3929 168.422C60.6969 168.41 59.9759 168.26 59.2298 167.971C58.5334 167.702 57.8443 167.321 57.1627 166.829C56.4763 166.349 55.857 165.788 55.3049 165.145L57.8636 162.854Z" fill="black"/>
<path d="M49.8538 147.176L48.5795 157.25L45.2011 154.755L46.1223 148.896L40.8575 151.546L37.5113 149.075L53.277 141.599L56.5428 144.011L49.8538 147.176Z" fill="black"/>
<path d="M30.5672 142.507L28.4729 139.554L29.5006 138.826C28.1577 138.568 27.1313 137.94 26.4217 136.939C25.5423 135.699 25.3932 134.383 25.9745 132.99C24.449 133.075 23.2504 132.503 22.3788 131.274C22.1011 130.882 21.8986 130.47 21.7714 130.037C21.6333 129.612 21.6006 129.186 21.6734 128.758C21.7352 128.338 21.9117 127.919 22.203 127.5C22.4865 127.07 22.9056 126.658 23.4602 126.265L28.8925 122.412L30.9868 125.364L26.8596 128.292C26.4354 128.592 26.1106 128.872 25.885 129.13C25.6517 129.377 25.5013 129.615 25.4339 129.842C25.3588 130.059 25.348 130.263 25.4016 130.454C25.4552 130.644 25.5438 130.827 25.6672 131.001C26.3383 131.947 27.3644 131.93 28.7456 130.951L32.8728 128.023L34.9671 130.976L30.8399 133.903C30.4158 134.204 30.087 134.478 29.8537 134.725C29.6095 134.98 29.4444 135.22 29.3584 135.445C29.2647 135.658 29.2485 135.866 29.3099 136.067C29.3603 136.277 29.4627 136.49 29.617 136.708C29.7481 136.893 29.8987 137.047 30.0688 137.172C30.2389 137.297 30.4518 137.366 30.7075 137.381C30.9446 137.393 31.2315 137.336 31.5683 137.212C31.8864 137.084 32.2685 136.862 32.7143 136.546L36.8416 133.619L38.9359 136.571L30.5672 142.507Z" fill="black"/>
<path d="M15.2101 115.43L24.8488 111.914L26.0894 115.314L16.4506 118.83L15.2101 115.43ZM12.8314 120.406C12.5684 120.502 12.3059 120.541 12.0438 120.523C11.7693 120.51 11.5124 120.447 11.273 120.336C11.0337 120.224 10.8228 120.074 10.6403 119.885C10.4533 119.684 10.3118 119.452 10.2159 119.189C10.1199 118.926 10.0809 118.663 10.0989 118.401C10.1123 118.126 10.1747 117.87 10.2861 117.63C10.3975 117.391 10.5539 117.178 10.7553 116.991C10.9442 116.808 11.1702 116.669 11.4333 116.573C11.6963 116.477 11.9651 116.436 12.2396 116.449C12.5017 116.467 12.7523 116.532 12.9917 116.643C13.231 116.755 13.4442 116.911 13.6312 117.113C13.8137 117.301 13.9529 117.527 14.0488 117.79C14.1448 118.053 14.1861 118.322 14.1727 118.597C14.1547 118.859 14.09 119.11 13.9786 119.349C13.8672 119.588 13.7171 119.799 13.5282 119.982C13.3267 120.169 13.0945 120.31 12.8314 120.406Z" fill="black"/>
<path d="M14.9086 97.5162C14.4223 97.7024 14.052 98.0009 13.7976 98.4116C13.5432 98.8224 13.4515 99.2921 13.5223 99.8207C13.5966 100.376 13.8031 100.812 14.1416 101.13C14.4784 101.435 14.9173 101.598 15.4583 101.62L14.9086 97.5162ZM17.553 101.44C19.0992 101.233 19.7749 100.402 19.5801 98.9486C19.4757 98.1689 19.0797 97.6233 18.3923 97.3118L17.9275 93.8428C20.3473 94.2316 21.7448 95.8268 22.1201 98.6285C22.2352 99.4875 22.215 100.291 22.0595 101.038C21.8908 101.787 21.6031 102.451 21.1964 103.03C20.7879 103.596 20.2719 104.062 19.6483 104.428C19.0247 104.794 18.3033 105.032 17.4839 105.142C16.6381 105.255 15.8605 105.225 15.1512 105.051C14.4286 104.878 13.7966 104.58 13.2554 104.154C12.7141 103.729 12.2719 103.19 11.9288 102.536C11.5706 101.871 11.3331 101.103 11.2163 100.23C11.1012 99.3715 11.1298 98.5807 11.302 97.8581C11.4611 97.1373 11.7532 96.5062 12.1784 95.965C12.6036 95.4237 13.1563 94.9797 13.8362 94.633C14.503 94.2881 15.2791 94.0564 16.1645 93.9377L16.5412 93.8873L17.553 101.44Z" fill="black"/>
<path d="M10.8094 84.9527L11.2929 81.3652L12.5813 81.5388C12.0525 80.9698 11.7229 80.4208 11.5924 79.892C11.4486 79.3614 11.4222 78.7591 11.513 78.0852C11.6092 77.3716 11.81 76.7798 12.1156 76.3098C12.4097 75.8247 12.7922 75.4323 13.2631 75.1325C13.6458 74.8881 14.0558 74.7415 14.4928 74.6928C14.9299 74.6441 15.4194 74.6562 15.9611 74.7293L22.4227 75.6002L21.9392 79.1877L16.8056 78.4958C16.3035 78.4281 15.8951 78.4135 15.5805 78.4518C15.2545 78.4751 14.9865 78.5668 14.7765 78.7269C14.5966 78.8641 14.4602 79.0273 14.3675 79.2166C14.2747 79.4059 14.2132 79.6129 14.1829 79.8375C14.101 80.4454 14.2227 80.9394 14.5482 81.3196C14.8622 81.6848 15.3562 81.9128 16.0301 82.0037L21.461 82.7356L20.9775 86.3232L10.8094 84.9527Z" fill="black"/>
<path d="M28.6198 57.0483L17.9667 46.0724L20.2594 42.9422L28.5301 45.2566L23.8166 38.0856L26.1092 34.9554L39.7877 41.8008L37.4832 44.9471L29.7125 40.8669L34.6114 48.8679L33.6896 50.1264L24.6898 47.7243L30.9243 53.902L28.6198 57.0483Z" fill="black"/>
<path d="M45.229 30.7901C45.4266 31.075 45.6583 31.3037 45.9241 31.4763C46.1932 31.6304 46.4708 31.7381 46.7567 31.7994C47.0536 31.853 47.3513 31.8494 47.6497 31.7884C47.9591 31.7198 48.2453 31.5943 48.5082 31.4119C48.7712 31.2295 48.9835 31.0092 49.1451 30.751C49.3177 30.4852 49.4254 30.2077 49.4682 29.9184C49.5218 29.6215 49.5182 29.3238 49.4572 29.0254C49.3995 28.7083 49.2757 28.4129 49.0857 28.139C48.9033 27.8761 48.6775 27.6676 48.4084 27.5135C48.1426 27.3409 47.8613 27.2278 47.5644 27.1741C47.2784 27.1128 46.9808 27.1164 46.6714 27.185C46.3729 27.246 46.0922 27.3677 45.8293 27.5501C45.5663 27.7325 45.3486 27.9566 45.176 28.2224C45.0143 28.4806 44.9066 28.7582 44.8529 29.055C44.8102 29.3443 44.8139 29.642 44.8639 29.9481C44.9249 30.2465 45.0466 30.5272 45.229 30.7901ZM42.0675 32.9347C41.6343 32.3102 41.3575 31.6422 41.2371 30.9306C41.109 30.208 41.1328 29.4937 41.3084 28.7877C41.4764 28.0708 41.7873 27.3845 42.2412 26.7288C42.7061 26.0656 43.3055 25.4794 44.0395 24.9702C44.7625 24.4686 45.5106 24.12 46.2837 23.9245C47.0602 23.7104 47.8136 23.6502 48.5439 23.744C49.2777 23.8192 49.9643 24.0487 50.6039 24.4326C51.2358 24.8056 51.7836 25.3262 52.2472 25.9945C52.7108 26.6628 53.0049 27.3675 53.1296 28.1086C53.2576 28.8312 53.2377 29.5509 53.0697 30.2679C52.8941 30.9738 52.5646 31.6568 52.0812 32.3167C51.6088 32.969 51.0055 33.5497 50.2715 34.0589C49.5485 34.5605 48.8042 34.9146 48.0387 35.1211C47.2732 35.3275 46.5253 35.3839 45.7949 35.2902C45.0755 35.1888 44.396 34.9462 43.7564 34.5623C43.1093 34.1674 42.5463 33.6248 42.0675 32.9347Z" fill="black"/>
<path d="M63.836 20.5722C63.9442 20.9015 64.1012 21.1868 64.3068 21.4279C64.5209 21.6523 64.7563 21.8345 65.013 21.9747C65.2823 22.1107 65.5686 22.192 65.8721 22.2185C66.1883 22.2409 66.4983 22.2021 66.8023 22.1021C67.1063 22.0022 67.3725 21.8515 67.601 21.65C67.8422 21.4444 68.0245 21.209 68.1478 20.9439C68.2838 20.6746 68.3651 20.3882 68.3917 20.0847C68.4267 19.7644 68.3921 19.4459 68.288 19.1293C68.1881 18.8253 68.031 18.5611 67.8169 18.3368C67.6113 18.0956 67.3738 17.907 67.1045 17.771C66.8479 17.6308 66.5615 17.5496 66.2453 17.5272C65.9419 17.5007 65.6381 17.5374 65.3342 17.6373C65.0302 17.7373 64.7576 17.8901 64.5164 18.0957C64.2879 18.2972 64.1057 18.5325 63.9696 18.8018C63.8463 19.067 63.765 19.3534 63.7258 19.661C63.6993 19.9645 63.736 20.2682 63.836 20.5722ZM60.1946 21.7275C59.9572 21.0055 59.8821 20.2863 59.9694 19.5699C60.0524 18.8408 60.2787 18.1628 60.648 17.5361C61.0132 16.8967 61.5068 16.3274 62.1286 15.8281C62.7631 15.3247 63.5047 14.9335 64.3533 14.6545C65.1893 14.3796 66.0056 14.2585 66.8024 14.2913C67.6077 14.3072 68.347 14.4641 69.0204 14.762C69.7023 15.043 70.2952 15.4586 70.7989 16.0088C71.2985 16.5463 71.6753 17.2014 71.9294 17.974C72.1834 18.7467 72.2647 19.5059 72.1731 20.2519C72.09 20.981 71.8659 21.6652 71.5007 22.3046C71.1313 22.9314 70.6209 23.4922 69.9696 23.9871C69.3309 24.4778 68.5873 24.8627 67.7387 25.1418C66.9027 25.4166 66.0884 25.5441 65.2958 25.524C64.5032 25.5039 63.7702 25.3449 63.0968 25.047C62.436 24.745 61.8538 24.3189 61.3501 23.7687C60.8422 23.2058 60.457 22.5254 60.1946 21.7275Z" fill="black"/>
<path d="M80.7207 11.2963L84.333 11.0612L84.4421 12.7376C84.7882 12.1005 85.2302 11.6041 85.7682 11.2484C86.3054 10.8794 86.9465 10.6706 87.6916 10.6222C87.7848 10.6161 87.8846 10.6096 87.991 10.6027C88.1107 10.5949 88.2447 10.5995 88.3927 10.6166L88.6174 14.0693C88.1229 13.861 87.5962 13.775 87.0373 13.8114C86.1991 13.8659 85.5836 14.1598 85.1907 14.6932C84.8103 15.2123 84.6512 15.9508 84.7136 16.9088L84.9993 21.2995L81.3869 21.5346L80.7207 11.2963Z" fill="black"/>
<path d="M104.728 16.0149C104.697 15.4951 104.525 15.052 104.21 14.6856C103.895 14.3191 103.475 14.0899 102.949 13.998C102.398 13.9014 101.919 13.9666 101.514 14.1935C101.122 14.4226 100.834 14.7918 100.65 15.3011L104.728 16.0149ZM100.19 17.3524C99.9207 18.889 100.509 19.7838 101.953 20.0367C102.728 20.1723 103.368 19.9594 103.872 19.398L107.32 20.0014C106.219 22.1911 104.276 23.0423 101.492 22.5549C100.638 22.4055 99.8788 22.1439 99.2133 21.7702C98.5501 21.3834 98.0037 20.9088 97.5743 20.3463C97.158 19.7861 96.8694 19.1536 96.7085 18.4486C96.5476 17.7436 96.5385 16.984 96.681 16.1697C96.8281 15.3292 97.0917 14.597 97.4716 13.9731C97.8538 13.3362 98.3293 12.8238 98.898 12.4361C99.4667 12.0483 100.114 11.7894 100.841 11.6594C101.583 11.5186 102.387 11.5241 103.254 11.6758C104.108 11.8252 104.853 12.091 105.49 12.4733C106.13 12.8423 106.643 13.3112 107.031 13.8799C107.419 14.4487 107.675 15.1095 107.801 15.8623C107.928 16.6021 107.915 17.412 107.761 18.2919L107.696 18.6662L100.19 17.3524Z" fill="black"/>
<path d="M129.759 29.9919L130.487 30.5208C131.037 30.9204 131.591 31.1906 132.148 31.3314C132.705 31.4722 133.238 31.4973 133.749 31.4068C134.271 31.3241 134.756 31.1327 135.204 30.8324C135.672 30.5292 136.086 30.1295 136.446 29.6332C136.799 29.1478 137.047 28.6359 137.191 28.0976C137.335 27.5594 137.365 27.0295 137.282 26.508C137.211 25.9944 137.021 25.4946 136.715 25.0086C136.409 24.5225 135.986 24.0836 135.447 23.6919L134.719 23.163L129.759 29.9919ZM133.498 18.1731L138.191 21.5815C139.022 22.1848 139.677 22.9162 140.157 23.7756C140.648 24.6429 140.959 25.5528 141.091 26.5056C141.241 27.4554 141.203 28.4161 140.975 29.3877C140.755 30.3485 140.351 31.2335 139.764 32.0426C139.184 32.8409 138.467 33.4987 137.614 34.0158C136.779 34.53 135.882 34.8678 134.925 35.0292C133.978 35.1984 133.016 35.1838 132.04 34.9855C131.074 34.7949 130.171 34.3941 129.329 33.7829L124.636 30.3745L133.498 18.1731Z" fill="black"/>
<path d="M150.29 45.2169C150.616 44.8111 150.786 44.3667 150.798 43.8837C150.811 43.4008 150.654 42.9488 150.327 42.5278C149.983 42.0858 149.585 41.8127 149.132 41.7086C148.688 41.6151 148.226 41.6952 147.748 41.949L150.29 45.2169ZM146.029 43.1593C144.798 44.1171 144.632 45.1748 145.533 46.3325C146.016 46.9535 146.632 47.2253 147.383 47.1482L149.532 49.9109C147.246 50.7938 145.235 50.1196 143.5 47.8884C142.967 47.2043 142.58 46.5003 142.338 45.7765C142.107 45.0444 142.021 44.3258 142.08 43.6207C142.148 42.926 142.359 42.2636 142.714 41.6333C143.068 41.0029 143.571 40.434 144.224 39.9265C144.898 39.4026 145.585 39.0371 146.285 38.8302C146.996 38.615 147.692 38.5547 148.374 38.6495C149.056 38.7442 149.71 38.9874 150.335 39.3792C150.98 39.7733 151.572 40.3176 152.112 41.0122C152.644 41.6963 153.018 42.3939 153.233 43.1049C153.459 43.8077 153.524 44.5 153.43 45.1818C153.335 45.8635 153.081 46.5254 152.668 47.1674C152.266 47.8013 151.712 48.3924 151.007 48.9408L150.707 49.1741L146.029 43.1593Z" fill="black"/>
<path d="M160.315 61.1676C160.363 60.4177 160.258 59.75 160 59.1645C159.865 58.8595 159.694 58.6364 159.486 58.495C159.283 58.3659 159.078 58.3471 158.87 58.4386C158.761 58.487 158.675 58.5396 158.612 58.5963C158.567 58.6598 158.536 58.7538 158.518 58.8783C158.505 59.015 158.518 59.1917 158.555 59.4084C158.598 59.6373 158.655 59.9326 158.727 60.2942C158.948 61.2899 158.92 62.1183 158.644 62.7796C158.379 63.4355 157.881 63.9249 157.149 64.2479C156.6 64.4901 156.058 64.5983 155.522 64.5725C154.986 64.5467 154.479 64.4059 154.002 64.1501C153.537 63.889 153.104 63.5189 152.703 63.0399C152.29 62.5664 151.938 62.0002 151.648 61.3415C151.088 60.0729 150.896 58.6637 151.072 57.1141L153.947 57.2883C153.722 58.4952 153.792 59.5135 154.158 60.343C154.293 60.648 154.47 60.8684 154.69 61.0044C154.911 61.1404 155.125 61.1626 155.332 61.0711C155.454 61.0172 155.544 60.9559 155.601 60.887C155.675 60.8249 155.721 60.7316 155.739 60.6071C155.77 60.4772 155.766 60.304 155.729 60.0872C155.709 59.8774 155.662 59.6065 155.589 59.2746C155.344 58.1584 155.331 57.3041 155.551 56.7117C155.788 56.1262 156.266 55.6746 156.986 55.357C157.511 55.1256 158.023 55.0159 158.524 55.0281C159.037 55.0349 159.521 55.1566 159.975 55.3934C160.429 55.6302 160.849 55.9698 161.233 56.4121C161.623 56.8667 161.958 57.4111 162.238 58.0454C162.696 59.0823 162.939 60.1775 162.967 61.331L160.315 61.1676Z" fill="black"/>
<path d="M166.934 74.2517L156.907 76.4245L156.14 72.8867L166.167 70.7138L166.934 74.2517ZM169.967 69.6448C170.241 69.5855 170.506 69.5826 170.763 69.636C171.034 69.6866 171.28 69.7834 171.502 69.9263C171.724 70.0692 171.912 70.2466 172.067 70.4586C172.225 70.6836 172.334 70.9329 172.393 71.2065C172.452 71.4802 172.455 71.7456 172.402 72.0027C172.351 72.2729 172.254 72.519 172.111 72.7409C171.969 72.9629 171.785 73.1528 171.56 73.3107C171.348 73.4658 171.105 73.573 170.831 73.6323C170.558 73.6916 170.286 73.6959 170.015 73.6453C169.758 73.5919 169.519 73.4938 169.297 73.3509C169.075 73.208 168.885 73.024 168.727 72.799C168.572 72.587 168.465 72.3442 168.405 72.0706C168.346 71.7969 168.342 71.525 168.392 71.2548C168.446 70.9977 168.544 70.7581 168.687 70.5362C168.83 70.3142 169.007 70.1257 169.219 69.9706C169.444 69.8127 169.693 69.7041 169.967 69.6448Z" fill="black"/>
<path d="M163.387 87.9195C163.053 87.9161 162.739 87.9728 162.445 88.0897C162.163 88.2068 161.915 88.3642 161.7 88.562C161.484 88.7731 161.315 89.018 161.192 89.2967C161.069 89.5888 161.006 89.9015 161.002 90.2348C160.999 90.5548 161.056 90.8554 161.173 91.1366C161.29 91.4312 161.454 91.6796 161.665 91.8818C161.876 92.0973 162.121 92.2666 162.4 92.3895C162.692 92.5259 162.998 92.5957 163.318 92.5991C163.651 92.6025 163.958 92.5391 164.24 92.4087C164.521 92.2916 164.769 92.1275 164.985 91.9164C165.2 91.7053 165.37 91.4537 165.493 91.1617C165.616 90.8829 165.679 90.5903 165.682 90.2836C165.685 89.9636 165.622 89.6629 165.491 89.3816C165.374 89.1003 165.21 88.8519 164.999 88.6364C164.801 88.421 164.563 88.2452 164.285 88.1089C164.006 87.986 163.707 87.9229 163.387 87.9195ZM168.382 96.0921L158.822 95.9924C158.249 95.9864 157.736 95.9477 157.283 95.8763C156.831 95.8049 156.432 95.7074 156.086 95.5838C155.648 95.4192 155.244 95.1617 154.874 94.8111C154.491 94.4738 154.162 94.0636 153.887 93.5808C153.612 93.0979 153.398 92.5489 153.244 91.934C153.09 91.3323 153.017 90.6782 153.025 89.9716C153.033 89.1716 153.141 88.4394 153.348 87.7748C153.554 87.1103 153.841 86.5266 154.206 86.0237C154.558 85.534 154.975 85.1316 155.458 84.8167C155.928 84.5016 156.444 84.2936 157.005 84.1928L156.963 88.2725C156.28 88.5188 155.934 89.0885 155.925 89.9818C155.917 90.7418 156.124 91.324 156.546 91.7284C156.969 92.1462 157.56 92.359 158.32 92.3669L159.3 92.3771C159.049 92.1079 158.839 91.8456 158.668 91.5905C158.511 91.3489 158.38 91.1008 158.276 90.8464C158.172 90.592 158.101 90.3245 158.064 90.0441C158.014 89.7636 157.99 89.4567 157.994 89.1233C158.001 88.3901 158.135 87.7181 158.395 87.1074C158.654 86.4968 159.013 85.9671 159.471 85.5186C159.929 85.0833 160.473 84.7423 161.102 84.4955C161.745 84.2622 162.452 84.1496 163.226 84.1577C164.012 84.1659 164.738 84.3068 165.401 84.5804C166.079 84.8541 166.662 85.2202 167.15 85.6787C167.652 86.1506 168.04 86.7013 168.313 87.3309C168.6 87.9739 168.739 88.6687 168.731 89.4154C168.719 90.6286 168.255 91.6438 167.339 92.461L168.419 92.4723L168.382 96.0921Z" fill="black"/>
<path d="M166.92 106.161L165.903 109.635L164.655 109.27C165.092 109.912 165.336 110.504 165.385 111.047C165.448 111.593 165.383 112.192 165.192 112.845C164.99 113.536 164.703 114.091 164.33 114.51C163.966 114.945 163.529 115.276 163.019 115.501C162.603 115.685 162.176 115.769 161.737 115.751C161.297 115.734 160.815 115.648 160.291 115.494L154.033 113.663L155.05 110.188L160.022 111.644C160.508 111.786 160.909 111.862 161.226 111.871C161.552 111.897 161.831 111.847 162.062 111.72C162.261 111.612 162.42 111.471 162.54 111.297C162.661 111.124 162.752 110.929 162.816 110.711C162.988 110.123 162.942 109.616 162.678 109.191C162.422 108.783 161.968 108.483 161.315 108.292L156.056 106.753L157.073 103.278L166.92 106.161Z" fill="black"/>
<path d="M144.512 146.155C145.941 146.221 147.101 145.758 147.993 144.767C148.385 144.331 148.672 143.853 148.852 143.333C149.023 142.824 149.09 142.311 149.053 141.793C149.026 141.285 148.896 140.782 148.662 140.285C148.419 139.797 148.079 139.357 147.643 138.965C147.197 138.564 146.719 138.268 146.208 138.078C145.689 137.898 145.17 137.817 144.652 137.835C144.124 137.863 143.617 137.989 143.128 138.213C142.64 138.437 142.204 138.762 141.82 139.188C140.982 140.12 140.625 141.315 140.75 142.771L137.3 139.669L137.463 139.278C137.706 138.689 137.966 138.17 138.244 137.721C138.513 137.263 138.816 136.846 139.155 136.469C139.851 135.696 140.663 135.081 141.593 134.626C142.523 134.19 143.496 133.935 144.512 133.862C145.529 133.809 146.546 133.944 147.564 134.267C148.592 134.6 149.537 135.154 150.4 135.93C151.262 136.705 151.908 137.573 152.336 138.532C152.766 139.51 152.997 140.499 153.031 141.498C153.066 142.515 152.907 143.51 152.552 144.483C152.208 145.464 151.683 146.346 150.979 147.129C150.578 147.576 150.136 147.967 149.653 148.304C149.172 148.66 148.618 148.987 147.992 149.285L144.512 146.155Z" fill="black"/>
<path d="M131.121 150.665C130.937 150.371 130.717 150.131 130.46 149.945C130.199 149.778 129.927 149.657 129.645 149.581C129.351 149.513 129.054 149.502 128.752 149.548C128.44 149.601 128.148 149.712 127.876 149.881C127.605 150.05 127.382 150.26 127.207 150.51C127.022 150.766 126.9 151.038 126.843 151.325C126.775 151.619 126.764 151.916 126.81 152.218C126.852 152.537 126.961 152.838 127.137 153.121C127.306 153.393 127.521 153.612 127.782 153.78C128.039 153.965 128.314 154.092 128.608 154.161C128.891 154.236 129.188 154.247 129.501 154.194C129.802 154.148 130.088 154.04 130.36 153.871C130.632 153.702 130.86 153.489 131.046 153.232C131.22 152.983 131.342 152.711 131.41 152.417C131.467 152.13 131.478 151.833 131.443 151.524C131.397 151.223 131.29 150.937 131.121 150.665ZM134.385 148.681C134.786 149.326 135.03 150.007 135.115 150.723C135.207 151.451 135.147 152.164 134.937 152.86C134.733 153.568 134.389 154.238 133.903 154.87C133.406 155.509 132.778 156.065 132.019 156.537C131.272 157.002 130.508 157.313 129.726 157.47C128.94 157.645 128.184 157.668 127.459 157.538C126.73 157.426 126.056 157.163 125.436 156.748C124.824 156.344 124.302 155.796 123.873 155.106C123.443 154.415 123.184 153.697 123.096 152.951C123.004 152.223 123.06 151.505 123.264 150.797C123.474 150.101 123.837 149.435 124.353 148.8C124.857 148.172 125.488 147.622 126.247 147.15C126.994 146.685 127.755 146.368 128.53 146.2C129.305 146.032 130.054 146.013 130.779 146.143C131.493 146.28 132.159 146.556 132.779 146.971C133.406 147.398 133.941 147.967 134.385 148.681Z" fill="black"/>
<path d="M114.568 155.596C114.67 155.9 114.71 156.203 114.685 156.507C114.666 156.823 114.589 157.116 114.455 157.387C114.321 157.657 114.141 157.894 113.914 158.097C113.674 158.305 113.403 158.46 113.1 158.562C112.797 158.665 112.493 158.704 112.19 158.68C111.873 158.66 111.58 158.583 111.309 158.449C111.039 158.315 110.8 158.128 110.593 157.889C110.389 157.662 110.236 157.397 110.134 157.094C110.032 156.791 109.99 156.481 110.01 156.165C110.034 155.861 110.113 155.574 110.247 155.304C110.381 155.033 110.568 154.794 110.807 154.587C111.034 154.383 111.299 154.231 111.602 154.128C111.905 154.026 112.215 153.984 112.532 154.004C112.835 154.028 113.122 154.107 113.393 154.241C113.663 154.375 113.9 154.555 114.103 154.782C114.311 155.022 114.466 155.293 114.568 155.596Z" fill="black"/>
<path d="M103.144 99.968C103.144 100.736 103.112 101.408 103.048 101.984C102.984 102.56 102.888 103.104 102.76 103.616C104.04 102.848 105.288 102.048 106.504 101.216C107.72 100.384 108.776 99.584 109.672 98.816H113.704C111.72 101.12 109.512 103.264 107.08 105.248C104.712 107.168 102.024 109.024 99.016 110.816C97.288 112.672 95.08 114.112 92.392 115.136C89.704 116.096 86.888 116.576 83.944 116.576C79.656 116.576 76.232 115.424 73.672 113.12C71.176 110.752 69.928 107.808 69.928 104.288C69.928 102.304 70.408 100.512 71.368 98.912C72.328 97.248 73.544 96.064 75.016 95.36C77.192 91.456 79.208 87.296 81.064 82.88C82.984 78.4 84.904 73.088 86.824 66.944L101.032 65.024C101.224 69.824 101.448 74.208 101.704 78.176C101.96 82.144 102.28 86.464 102.664 91.136C102.856 93.824 102.984 95.712 103.048 96.8C103.112 97.888 103.144 98.944 103.144 99.968ZM87.4 77.312C86.568 79.936 85.544 82.688 84.328 85.568C83.176 88.384 81.608 91.68 79.624 95.456C80.328 95.776 80.872 96.224 81.256 96.8C81.64 97.376 81.832 98.048 81.832 98.816C81.832 100.032 81.416 101.12 80.584 102.08C79.752 103.04 78.76 103.52 77.608 103.52C76.968 103.52 76.424 103.424 75.976 103.232C75.528 102.976 75.208 102.656 75.016 102.272C75.016 104.64 75.464 106.368 76.36 107.456C77.32 108.48 78.824 108.992 80.872 108.992C83.496 108.992 85.544 108.224 87.016 106.688C88.488 105.152 89.224 102.944 89.224 100.064C89.224 99.168 89.192 98.272 89.128 97.376C89.064 96.416 88.936 94.848 88.744 92.672C88.424 89.664 88.168 87.008 87.976 84.704C87.784 82.4 87.592 79.936 87.4 77.312Z" fill="black"/>
</svg>
