<svg width="64" height="48" viewBox="0 0 64 48" fill="none" xmlns="http://www.w3.org/2000/svg">
<path d="M11.776 14.568C13.5253 14.568 15.1573 14.6853 16.672 14.92C18.208 15.1333 19.3067 15.3573 19.968 15.592L20.928 15.944V25.096C19.2 24.3067 16.832 23.912 13.824 23.912V24.744C16.5973 24.9573 18.592 25.512 19.808 26.408C21.024 27.304 21.632 28.6587 21.632 30.472C21.632 32.648 20.7467 34.3333 18.976 35.528C17.2053 36.7227 14.4747 37.32 10.784 37.32C8.672 37.32 6.80533 37.2027 5.184 36.968C3.56267 36.712 2.47467 36.4667 1.92 36.232L1.056 35.848V27.88C1.248 27.9653 1.536 28.0827 1.92 28.232C2.304 28.3813 3.15733 28.5733 4.48 28.808C5.824 29.0427 7.264 29.16 8.8 29.16V28.392C6.19733 28.2 4.23467 27.6453 2.912 26.728C1.58933 25.8107 0.928 24.2107 0.928 21.928C0.928 19.6453 1.83467 17.8533 3.648 16.552C5.46133 15.2293 8.17067 14.568 11.776 14.568ZM48.813 14.888V37H37.773V29L36.365 32.712H35.533L34.061 29V37H23.053V14.888H34.061L35.533 19.144H36.365L37.773 14.888H48.813ZM56.6948 37.288C54.3908 37.288 52.7588 36.872 51.7988 36.04C50.8388 35.1867 50.3588 33.8 50.3588 31.88C50.3588 29.96 50.8388 28.5947 51.7988 27.784C52.7801 26.9733 54.4121 26.568 56.6948 26.568C58.9988 26.568 60.6414 26.984 61.6228 27.816C62.6254 28.6267 63.1268 29.992 63.1268 31.912C63.1268 33.8107 62.6361 35.1867 61.6548 36.04C60.6734 36.872 59.0201 37.288 56.6948 37.288Z" fill="black"/>
</svg>
