<svg width="114" height="114" viewBox="0 0 114 114" fill="none" xmlns="http://www.w3.org/2000/svg">
<circle cx="57" cy="57" r="53" stroke="#314261" stroke-width="8"/>
<path d="M105 45.028H105.683L105.477 44.3767L102.977 36.5047L102.866 36.156H102.5H78.486H78.1212L78.0098 36.5034L73.6766 50.0229L69.1683 36.4979L69.0543 36.156H68.694H46.71H46.21V36.656V44.528V45.028H46.71H48.61V65.628H46.71H46.21V66.128V74V74.5H46.71H62.454H62.954V74V66.128V65.628H62.454H60.65V52.5601L68.0771 74.1626L68.1931 74.5H68.55H75.654H76.0152L76.1287 74.157L83.314 52.4321V65.628H81.51H81.01V66.128V74V74.5H81.51H99.654H100.154V74V66.128V65.628H99.654H97.754V45.028H105Z" fill="#314261" stroke="#314261"/>
<path d="M20.412 74.3943L20.412 74.3943L20.4186 74.3956C23.2035 74.9137 26.1463 75.172 29.246 75.172C34.5791 75.172 38.7055 74.1236 41.5487 71.95C44.4481 69.758 45.874 66.5247 45.874 62.336C45.874 59.2717 45.0654 56.7479 43.4043 54.8136C41.7872 52.8615 39.2291 51.3184 35.792 50.151C35.7916 50.1508 35.7912 50.1507 35.7908 50.1506L31.617 48.7113L31.617 48.7113L31.6122 48.7097C30.5726 48.3632 29.8582 48.0455 29.4343 47.7646C29.1203 47.5379 28.978 47.2577 28.978 46.88C28.978 46.3763 29.13 46.1665 29.306 46.0639L29.306 46.064L29.3161 46.0578C29.6079 45.8782 30.1767 45.748 31.118 45.748C32.0559 45.748 32.6667 45.9392 33.0362 46.2372C33.3851 46.5186 33.594 46.957 33.594 47.648V48.148H34.094H43.694H44.194V47.648V39.056V38.777L43.9566 38.6305C42.39 37.6639 40.3492 36.9119 37.8536 36.3606C35.3809 35.7753 32.7351 35.484 29.918 35.484C24.0947 35.484 19.8074 36.4763 17.1753 38.5683C14.5673 40.6345 13.29 43.6576 13.29 47.552C13.29 50.7377 14.0793 53.3277 15.7116 55.2661L15.7116 55.2661L15.7149 55.27C17.3601 57.1838 20.0078 58.8055 23.5971 60.1637L23.597 60.1638L23.6094 60.1681L27.7318 61.6062C28.738 61.9839 29.3811 62.3399 29.7229 62.6554L29.7308 62.6627L29.7391 62.6697C30.051 62.9337 30.186 63.2295 30.186 63.584C30.186 64.0485 30.026 64.3517 29.7265 64.5669C29.4417 64.7624 28.8709 64.908 27.902 64.908C26.7473 64.908 26.1079 64.6828 25.8076 64.3825C25.4947 64.0695 25.282 63.5083 25.282 62.576V62.0834L24.7895 62.0761L5.50747 61.7881L5 61.7805V62.288V71.552V71.8734L5.29235 72.0069C5.53094 72.1158 5.9097 72.2163 6.34944 72.3122C6.80324 72.4112 7.36652 72.5144 8.00204 72.6198C9.27371 72.8306 10.8554 73.0534 12.4701 73.2715C13.2346 73.3748 14.005 73.4768 14.7536 73.5759C17.1855 73.8979 19.3879 74.1895 20.412 74.3943Z" fill="#314261" stroke="#314261"/>
</svg>
