<svg width="60" height="49" viewBox="0 0 60 49" fill="none" xmlns="http://www.w3.org/2000/svg">
<path d="M53.336 48.72C51.032 48.72 49.4 48.304 48.44 47.472C47.48 46.6187 47 45.232 47 43.312C47 41.392 47.48 40.0267 48.44 39.216C49.4213 38.4053 51.0533 38 53.336 38C55.64 38 57.2827 38.416 58.264 39.248C59.2667 40.0587 59.768 41.424 59.768 43.344C59.768 45.2427 59.2773 46.6187 58.296 47.472C57.3147 48.304 55.6613 48.72 53.336 48.72Z" fill="black"/>
<path d="M36.567 36.528V38.288C36.9937 38.3307 37.7403 38.352 38.807 38.352C40.8123 38.352 42.6043 38.288 44.183 38.16L44.951 38.096V47.664C42.8817 48.3893 39.9377 48.752 36.119 48.752C32.3217 48.752 29.4097 47.7813 27.383 45.84C25.3777 43.8987 24.375 41.0187 24.375 37.2C24.375 33.36 25.367 30.5333 27.351 28.72C29.335 26.9067 32.2897 26 36.215 26C37.8577 26 39.4043 26.096 40.855 26.288C42.327 26.48 43.3723 26.672 43.991 26.864L44.951 27.152V37.008C43.095 36.688 40.3003 36.528 36.567 36.528Z" fill="black"/>
<path d="M0 26.32H11.552C15.1147 26.32 17.8347 27.1733 19.712 28.88C21.6107 30.5867 22.56 33.3707 22.56 37.232C22.56 44.6987 18.7413 48.432 11.104 48.432H0V26.32ZM10.752 35.632V41.168H11.648C11.904 41.168 12.1173 41.0827 12.288 40.912C12.48 40.7413 12.576 40.5173 12.576 40.24V36.528C12.576 36.272 12.48 36.0587 12.288 35.888C12.1173 35.7173 11.904 35.632 11.648 35.632H10.752Z" fill="black"/>
<path d="M43 3V20H34V13.8495L32.8522 16.7033H32.1739L30.9739 13.8495V20H22V3H30.9739L32.1739 6.27207H32.8522L34 3H43Z" fill="black"/>
<path d="M10.848 0C12.5973 0 14.2293 0.117333 15.744 0.351999C17.28 0.565334 18.3787 0.789334 19.04 1.024L20 1.376V10.528C18.272 9.73867 15.904 9.344 12.896 9.344V10.176C15.6693 10.3893 17.664 10.944 18.88 11.84C20.096 12.736 20.704 14.0907 20.704 15.904C20.704 18.08 19.8187 19.7653 18.048 20.96C16.2773 22.1547 13.5467 22.752 9.856 22.752C7.744 22.752 5.87733 22.6347 4.256 22.4C2.63467 22.144 1.54667 21.8987 0.992 21.664L0.128 21.28V13.312C0.32 13.3973 0.608 13.5147 0.992 13.664C1.376 13.8133 2.22933 14.0053 3.552 14.24C4.896 14.4747 6.336 14.592 7.872 14.592V13.824C5.26933 13.632 3.30667 13.0773 1.984 12.16C0.661333 11.2427 0 9.64267 0 7.36C0 5.07733 0.906667 3.28533 2.72 1.984C4.53333 0.661333 7.24267 0 10.848 0Z" fill="black"/>
</svg>
