<svg width="109" height="15" viewBox="0 0 109 15" fill="none" xmlns="http://www.w3.org/2000/svg">
<g filter="url(#filter0_d_222_41)">
<circle cx="5.5" cy="5.5" r="1.5" fill="#FF0000"/>
</g>
<path d="M14.041 4.46094V9.00195C14.041 9.64974 14.1468 10.1234 14.3584 10.4229C14.6742 10.8558 15.1185 11.0723 15.6914 11.0723C16.2676 11.0723 16.7135 10.8558 17.0293 10.4229C17.2409 10.1331 17.3467 9.65951 17.3467 9.00195V4.46094H18.4844V9.31445C18.4844 10.1087 18.237 10.763 17.7422 11.2773C17.1855 11.8503 16.502 12.1367 15.6914 12.1367C14.8809 12.1367 14.1989 11.8503 13.6455 11.2773C13.1507 10.763 12.9033 10.1087 12.9033 9.31445V4.46094H14.041ZM20.1543 7.24414H21.2578V7.68359C21.6419 7.30273 22.0749 7.1123 22.5566 7.1123C23.11 7.1123 23.5413 7.28646 23.8506 7.63477C24.1175 7.93099 24.251 8.41439 24.251 9.08496V12H23.1475V9.34375C23.1475 8.875 23.0824 8.55111 22.9521 8.37207C22.8252 8.18978 22.5941 8.09863 22.2588 8.09863C21.8942 8.09863 21.6354 8.21908 21.4824 8.45996C21.3327 8.69759 21.2578 9.11263 21.2578 9.70508V12H20.1543V7.24414ZM29.1484 7.24414H30.252V12H29.1484V11.502C28.696 11.9251 28.2093 12.1367 27.6885 12.1367C27.0309 12.1367 26.4873 11.8991 26.0576 11.4238C25.6312 10.9388 25.418 10.3333 25.418 9.60742C25.418 8.89453 25.6312 8.30046 26.0576 7.8252C26.484 7.34993 27.0179 7.1123 27.6592 7.1123C28.2126 7.1123 28.709 7.34017 29.1484 7.7959V7.24414ZM26.541 9.60742C26.541 10.0632 26.6631 10.4342 26.9072 10.7207C27.1579 11.0104 27.4736 11.1553 27.8545 11.1553C28.2614 11.1553 28.5902 11.0153 28.8408 10.7354C29.0915 10.4456 29.2168 10.0778 29.2168 9.63184C29.2168 9.18587 29.0915 8.81803 28.8408 8.52832C28.5902 8.24512 28.2646 8.10352 27.8643 8.10352C27.4867 8.10352 27.1709 8.24674 26.917 8.5332C26.6663 8.82292 26.541 9.18099 26.541 9.60742ZM32.3174 7.24414L33.5479 9.91504L34.7734 7.24414H36.0088L33.5381 12.3271L31.0869 7.24414H32.3174ZM40.0859 7.24414H41.1895V12H40.0859V11.502C39.6335 11.9251 39.1468 12.1367 38.626 12.1367C37.9684 12.1367 37.4248 11.8991 36.9951 11.4238C36.5687 10.9388 36.3555 10.3333 36.3555 9.60742C36.3555 8.89453 36.5687 8.30046 36.9951 7.8252C37.4215 7.34993 37.9554 7.1123 38.5967 7.1123C39.1501 7.1123 39.6465 7.34017 40.0859 7.7959V7.24414ZM37.4785 9.60742C37.4785 10.0632 37.6006 10.4342 37.8447 10.7207C38.0954 11.0104 38.4111 11.1553 38.792 11.1553C39.1989 11.1553 39.5277 11.0153 39.7783 10.7354C40.029 10.4456 40.1543 10.0778 40.1543 9.63184C40.1543 9.18587 40.029 8.81803 39.7783 8.52832C39.5277 8.24512 39.2021 8.10352 38.8018 8.10352C38.4242 8.10352 38.1084 8.24674 37.8545 8.5332C37.6038 8.82292 37.4785 9.18099 37.4785 9.60742ZM43.6748 7.24414V12H42.5762V7.24414H43.6748ZM42.4102 5.2666C42.4102 5.07454 42.4801 4.90853 42.6201 4.76855C42.7601 4.62858 42.9277 4.55859 43.123 4.55859C43.3216 4.55859 43.4909 4.62858 43.6309 4.76855C43.7708 4.90527 43.8408 5.07292 43.8408 5.27148C43.8408 5.47005 43.7708 5.63932 43.6309 5.7793C43.4941 5.91927 43.3265 5.98926 43.1279 5.98926C42.9294 5.98926 42.7601 5.91927 42.6201 5.7793C42.4801 5.63932 42.4102 5.46842 42.4102 5.2666ZM46.165 3.75293V12H45.0664V3.75293H46.165ZM51.0625 7.24414H52.166V12H51.0625V11.502C50.61 11.9251 50.1234 12.1367 49.6025 12.1367C48.945 12.1367 48.4014 11.8991 47.9717 11.4238C47.5452 10.9388 47.332 10.3333 47.332 9.60742C47.332 8.89453 47.5452 8.30046 47.9717 7.8252C48.3981 7.34993 48.932 7.1123 49.5732 7.1123C50.1266 7.1123 50.623 7.34017 51.0625 7.7959V7.24414ZM48.4551 9.60742C48.4551 10.0632 48.5771 10.4342 48.8213 10.7207C49.0719 11.0104 49.3877 11.1553 49.7686 11.1553C50.1755 11.1553 50.5042 11.0153 50.7549 10.7354C51.0055 10.4456 51.1309 10.0778 51.1309 9.63184C51.1309 9.18587 51.0055 8.81803 50.7549 8.52832C50.5042 8.24512 50.1787 8.10352 49.7783 8.10352C49.4007 8.10352 49.085 8.24674 48.8311 8.5332C48.5804 8.82292 48.4551 9.18099 48.4551 9.60742ZM54.6514 3.75293V7.7959C55.0908 7.34017 55.5889 7.1123 56.1455 7.1123C56.7868 7.1123 57.3206 7.35156 57.7471 7.83008C58.1735 8.30534 58.3867 8.89779 58.3867 9.60742C58.3867 10.3398 58.1719 10.9453 57.7422 11.4238C57.3158 11.8991 56.777 12.1367 56.126 12.1367C55.5758 12.1367 55.0843 11.9251 54.6514 11.502V12H53.5527V3.75293H54.6514ZM57.2637 9.65625C57.2637 9.20052 57.14 8.82943 56.8926 8.54297C56.6419 8.25 56.3278 8.10352 55.9502 8.10352C55.5465 8.10352 55.2178 8.24512 54.9639 8.52832C54.7132 8.80827 54.5879 9.17285 54.5879 9.62207C54.5879 10.0843 54.7116 10.4538 54.959 10.7305C55.2064 11.0137 55.5319 11.1553 55.9355 11.1553C56.3164 11.1553 56.6322 11.0137 56.8828 10.7305C57.1367 10.444 57.2637 10.0859 57.2637 9.65625ZM60.6475 3.75293V12H59.5488V3.75293H60.6475ZM66.3701 9.88086H62.9619C62.9912 10.2715 63.1182 10.5824 63.3428 10.8135C63.5674 11.0413 63.8555 11.1553 64.207 11.1553C64.4805 11.1553 64.7067 11.0902 64.8857 10.96C65.0615 10.8298 65.2617 10.5889 65.4863 10.2373L66.4141 10.7549C66.2708 10.999 66.1195 11.209 65.96 11.3848C65.8005 11.5573 65.6296 11.7005 65.4473 11.8145C65.265 11.9251 65.068 12.0065 64.8564 12.0586C64.6449 12.1107 64.4154 12.1367 64.168 12.1367C63.4583 12.1367 62.8887 11.9089 62.459 11.4531C62.0293 10.9941 61.8145 10.3854 61.8145 9.62695C61.8145 8.875 62.0228 8.26628 62.4395 7.80078C62.8594 7.3418 63.416 7.1123 64.1094 7.1123C64.8092 7.1123 65.3626 7.33529 65.7695 7.78125C66.1732 8.22396 66.375 8.83757 66.375 9.62207L66.3701 9.88086ZM65.2422 8.98242C65.0892 8.39648 64.7197 8.10352 64.1338 8.10352C64.0003 8.10352 63.875 8.12467 63.7578 8.16699C63.6406 8.20605 63.5332 8.26465 63.4355 8.34277C63.3411 8.41764 63.2598 8.50879 63.1914 8.61621C63.123 8.72363 63.071 8.8457 63.0352 8.98242H65.2422ZM71.7998 8.26953V12H70.6963V8.26953H70.3057V7.24414H70.6963V5.4082C70.6963 4.80924 70.8005 4.38607 71.0088 4.13867C71.2952 3.79362 71.7119 3.62109 72.2588 3.62109C72.4541 3.62109 72.6999 3.67806 72.9961 3.79199V4.91504L72.8838 4.85645C72.6462 4.736 72.4508 4.67578 72.2979 4.67578C72.1025 4.67578 71.9707 4.74577 71.9023 4.88574C71.834 5.02246 71.7998 5.28613 71.7998 5.67676V7.24414H72.9961V8.26953H71.7998ZM73.5332 9.58789C73.5332 8.90104 73.779 8.31673 74.2705 7.83496C74.762 7.35319 75.361 7.1123 76.0674 7.1123C76.777 7.1123 77.3792 7.35482 77.874 7.83984C78.3623 8.32487 78.6064 8.92057 78.6064 9.62695C78.6064 10.3398 78.3607 10.9372 77.8691 11.4189C77.3743 11.8975 76.7673 12.1367 76.0479 12.1367C75.335 12.1367 74.7376 11.8926 74.2559 11.4043C73.7741 10.9225 73.5332 10.3171 73.5332 9.58789ZM74.6562 9.60742C74.6562 10.0827 74.7832 10.4587 75.0371 10.7354C75.2975 11.0153 75.641 11.1553 76.0674 11.1553C76.4971 11.1553 76.8405 11.0169 77.0977 10.7402C77.3548 10.4635 77.4834 10.0941 77.4834 9.63184C77.4834 9.1696 77.3548 8.80013 77.0977 8.52344C76.8372 8.24349 76.4938 8.10352 76.0674 8.10352C75.6475 8.10352 75.3073 8.24349 75.0469 8.52344C74.7865 8.80339 74.6562 9.16471 74.6562 9.60742ZM79.7734 7.24414H80.8721V7.66895C81.0739 7.45736 81.2529 7.3125 81.4092 7.23438C81.5687 7.15299 81.7575 7.1123 81.9756 7.1123C82.2653 7.1123 82.568 7.20671 82.8838 7.39551L82.3809 8.40137C82.1725 8.25163 81.9691 8.17676 81.7705 8.17676C81.1715 8.17676 80.8721 8.62923 80.8721 9.53418V12H79.7734V7.24414ZM87.1953 7.24414L88.4404 9.95898L89.7832 6.80957L91.1357 9.95898L92.3662 7.24414H93.5967L91.1064 12.3564L89.7832 9.29492L88.4453 12.3564L85.96 7.24414H87.1953ZM93.9336 9.58789C93.9336 8.90104 94.1794 8.31673 94.6709 7.83496C95.1624 7.35319 95.7614 7.1123 96.4678 7.1123C97.1774 7.1123 97.7796 7.35482 98.2744 7.83984C98.7627 8.32487 99.0068 8.92057 99.0068 9.62695C99.0068 10.3398 98.7611 10.9372 98.2695 11.4189C97.7747 11.8975 97.1676 12.1367 96.4482 12.1367C95.7354 12.1367 95.138 11.8926 94.6562 11.4043C94.1745 10.9225 93.9336 10.3171 93.9336 9.58789ZM95.0566 9.60742C95.0566 10.0827 95.1836 10.4587 95.4375 10.7354C95.6979 11.0153 96.0413 11.1553 96.4678 11.1553C96.8975 11.1553 97.2409 11.0169 97.498 10.7402C97.7552 10.4635 97.8838 10.0941 97.8838 9.63184C97.8838 9.1696 97.7552 8.80013 97.498 8.52344C97.2376 8.24349 96.8942 8.10352 96.4678 8.10352C96.0479 8.10352 95.7077 8.24349 95.4473 8.52344C95.1868 8.80339 95.0566 9.16471 95.0566 9.60742ZM100.174 7.24414H101.272V7.66895C101.474 7.45736 101.653 7.3125 101.81 7.23438C101.969 7.15299 102.158 7.1123 102.376 7.1123C102.666 7.1123 102.968 7.20671 103.284 7.39551L102.781 8.40137C102.573 8.25163 102.369 8.17676 102.171 8.17676C101.572 8.17676 101.272 8.62923 101.272 9.53418V12H100.174V7.24414ZM105.169 3.75293V8.78223L106.717 7.24414H108.191L106.126 9.24121L108.343 12H106.917L105.345 9.99316L105.169 10.1689V12H104.07V3.75293H105.169Z" fill="black"/>
<defs>
<filter id="filter0_d_222_41" x="0" y="0" width="11" height="11" filterUnits="userSpaceOnUse" color-interpolation-filters="sRGB">
<feFlood flood-opacity="0" result="BackgroundImageFix"/>
<feColorMatrix in="SourceAlpha" type="matrix" values="0 0 0 0 0 0 0 0 0 0 0 0 0 0 0 0 0 0 127 0" result="hardAlpha"/>
<feOffset/>
<feGaussianBlur stdDeviation="2"/>
<feComposite in2="hardAlpha" operator="out"/>
<feColorMatrix type="matrix" values="0 0 0 0 1 0 0 0 0 0 0 0 0 0 0 0 0 0 1 0"/>
<feBlend mode="normal" in2="BackgroundImageFix" result="effect1_dropShadow_222_41"/>
<feBlend mode="normal" in="SourceGraphic" in2="effect1_dropShadow_222_41" result="shape"/>
</filter>
</defs>
</svg>
